<?xml version="1.0" standalone="no"?>
<!DOCTYPE svg PUBLIC "-//W3C//DTD SVG 20010904//EN"
 "http://www.w3.org/TR/2001/REC-SVG-20010904/DTD/svg10.dtd">
<svg version="1.0" xmlns="http://www.w3.org/2000/svg"
 width="192.000000pt" height="192.000000pt" viewBox="0 0 192.000000 192.000000"
 preserveAspectRatio="xMidYMid meet">
<metadata>
Created by potrace 1.14, written by Peter Selinger 2001-2017
</metadata>
<g transform="translate(0.000000,192.000000) scale(0.100000,-0.100000)"
fill="#000000" stroke="none">
<path d="M395 1568 c-32 -8 -55 -31 -63 -65 -4 -16 -7 -274 -7 -575 2 -585 1
-582 51 -609 35 -18 1134 -18 1168 1 50 26 50 23 50 617 1 594 1 599 -48 625
-23 13 -1105 19 -1151 6z m1116 -77 c6 -23 4 -941 -2 -939 -4 2 -50 55 -104
118 -53 63 -118 139 -143 168 -25 29 -53 64 -63 76 -28 35 -83 58 -125 52 -47
-8 -71 -28 -130 -106 -27 -36 -51 -67 -54 -70 -3 -3 -32 -40 -65 -83 -33 -43
-65 -85 -72 -94 -11 -14 -15 -13 -39 6 -82 64 -150 43 -244 -78 -34 -44 -63
-81 -64 -81 -7 0 0 1026 6 1031 5 3 254 6 554 6 299 0 545 -3 545 -6z m-344
-658 c26 -32 53 -63 58 -69 6 -6 30 -35 55 -64 25 -29 50 -58 55 -64 6 -6 30
-36 55 -66 25 -30 47 -57 50 -60 3 -3 22 -26 43 -51 36 -44 45 -68 30 -70 -5
-1 -145 -2 -312 -3 l-303 -1 -54 69 c-30 38 -54 72 -54 75 0 8 223 298 256
334 40 42 65 36 121 -30z m-497 -282 c26 -28 120 -153 120 -160 0 -3 -76 -6
-169 -6 l-169 -1 16 26 c9 14 19 27 22 30 3 3 23 28 44 55 69 89 96 100 136
56z"/>
<path d="M649 1142 c-116 -51 -121 -211 -8 -261 91 -41 189 13 202 111 6 49
-24 111 -68 138 -32 20 -94 26 -126 12z m112 -110 c21 -54 -30 -103 -83 -83
-81 31 -36 147 45 118 16 -5 33 -21 38 -35z"/>
</g>
</svg>
